<svg xmlns="http://www.w3.org/2000/svg" xmlns:xlink="http://www.w3.org/1999/xlink" xmlns:sketch="http://www.bohemiancoding.com/sketch/ns" width="251" height="150" viewBox="0 0 251 150" version="1.1">
  <title>
    Untitled 2
  </title>
  <desc>
    Created with Sketch.
  </desc>
  <g id="Page-1" stroke="none" stroke-width="1" fill="none" fill-rule="evenodd" sketch:type="MSPage">
    <path d="M30.79 16.84L28.13 17.13C27.66 17.18 27.34 17.29 27.16 17.45 26.98 17.62 26.9 17.89 26.9 18.27L26.9 22.83C26.9 23.56 26.88 24.15 26.86 24.59 26.83 25.03 26.74 25.37 26.59 25.63 26.44 25.89 26.2 26.1 25.87 26.27 25.54 26.43 25.08 26.62 24.48 26.84 23.41 27.25 22.17 27.58 20.77 27.83 19.36 28.07 17.88 28.2 16.32 28.2 14.1 28.2 12.1 27.88 10.29 27.25 8.49 26.62 6.94 25.75 5.66 24.63 4.37 23.51 3.38 22.16 2.69 20.57 1.99 18.98 1.64 17.24 1.64 15.32 1.64 13.27 2.04 11.4 2.83 9.71 3.62 8.01 4.71 6.55 6.11 5.34 7.5 4.12 9.16 3.18 11.09 2.51 13.02 1.84 15.12 1.51 17.38 1.51 21.02 1.51 24.05 2.16 26.49 3.47L26.81 8.39 26.24 8.52C24.55 4.44 21.78 2.41 17.96 2.41 16.07 2.41 14.37 2.7 12.85 3.29 11.34 3.88 10.05 4.71 8.98 5.79 7.91 6.87 7.1 8.17 6.54 9.71 5.98 11.24 5.7 12.94 5.7 14.83 5.7 16.44 5.99 17.99 6.58 19.48 7.17 20.97 7.99 22.29 9.04 23.44 10.09 24.59 11.33 25.5 12.75 26.19 14.17 26.87 15.72 27.21 17.38 27.21 21.48 27.21 23.53 25.75 23.53 22.83L23.53 18.27C23.53 17.86 23.43 17.58 23.23 17.41 23.02 17.25 22.7 17.15 22.26 17.13L18.33 16.84 18.33 16.1C20.46 16.21 22.54 16.27 24.56 16.27 26.58 16.27 28.66 16.21 30.79 16.1L30.79 16.84ZM40.71 27.7C40.28 27.65 39.69 27.61 38.95 27.58 38.21 27.55 37.3 27.54 36.2 27.54 35.11 27.54 34.19 27.55 33.46 27.58 32.72 27.61 32.13 27.65 31.69 27.7L31.69 27.05 33.99 26.6C34.84 26.43 35.26 25.94 35.26 25.12L35.26 16.88C35.26 16.22 35.1 15.75 34.77 15.45 34.44 15.14 33.78 14.88 32.8 14.67L32.8 14.09C34.74 13.6 36.16 12.62 37.06 11.14L37.72 11.14 37.72 25.24C37.72 25.65 37.78 25.95 37.9 26.15 38.03 26.34 38.27 26.47 38.62 26.56L40.71 27.05 40.71 27.7ZM36.2 2.69C36.67 2.69 37.09 2.87 37.47 3.23 37.86 3.58 38.05 3.99 38.05 4.46 38.05 4.89 37.85 5.28 37.45 5.63 37.06 5.97 36.61 6.14 36.12 6.14 35.66 6.14 35.26 5.97 34.93 5.65 34.6 5.32 34.44 4.92 34.44 4.46 34.44 3.99 34.62 3.58 34.97 3.23 35.33 2.87 35.74 2.69 36.2 2.69L36.2 2.69ZM51.29 27.66C50.63 27.64 49.91 27.61 49.12 27.58 48.33 27.55 47.53 27.54 46.74 27.54 45.95 27.54 45.15 27.55 44.36 27.58 43.57 27.61 42.85 27.64 42.19 27.66L42.19 27.01 44.73 26.52C45.09 26.43 45.33 26.32 45.47 26.19 45.61 26.05 45.67 25.78 45.67 25.37L45.67 4.54C45.67 3.96 45.51 3.54 45.18 3.27 44.85 2.99 44.13 2.69 43.01 2.37L43.01 1.83C44.1 1.61 45.51 1.16 47.23 0.48L48.18 0.48 48.18 25.29C48.18 25.8 48.23 26.14 48.34 26.29 48.45 26.44 48.71 26.56 49.12 26.64L51.29 27.01 51.29 27.66ZM53.3 2.37L53.42 1.75 58.67 0.48 58.67 12.62C60.91 11.66 62.87 11.18 64.53 11.18 65.68 11.18 66.71 11.39 67.63 11.82 68.55 12.24 69.33 12.82 69.99 13.56 70.64 14.3 71.15 15.17 71.5 16.18 71.86 17.19 72.04 18.27 72.04 19.42 72.04 20.73 71.82 21.93 71.38 23.01 70.94 24.09 70.35 25.01 69.6 25.78 68.85 26.54 67.95 27.14 66.91 27.56 65.87 27.98 64.77 28.2 63.59 28.2 63.04 28.2 62.46 28.12 61.85 27.97 61.23 27.82 60.67 27.66 60.17 27.48 59.66 27.3 59.23 27.14 58.88 26.99 58.52 26.84 58.32 26.76 58.26 26.76 57.82 26.76 57.3 27.31 56.7 28.4L56.09 28.4 56.09 7.45C56.09 6.74 56.11 6.14 56.15 5.65 56.19 5.15 56.14 4.72 56.01 4.33 55.87 3.95 55.6 3.61 55.21 3.31 54.81 3.01 54.17 2.69 53.3 2.37L53.3 2.37ZM58.67 23.11C58.67 24.34 59.04 25.3 59.78 25.98 60.52 26.67 61.54 27.01 62.85 27.01 66.98 27.01 69.04 24.74 69.04 20.2 69.04 19.11 68.89 18.1 68.59 17.17 68.29 16.24 67.86 15.43 67.3 14.75 66.74 14.06 66.08 13.52 65.31 13.13 64.55 12.73 63.71 12.53 62.81 12.53 61.64 12.53 60.65 12.7 59.86 13.03 59.07 13.35 58.67 13.74 58.67 14.17L58.67 23.11ZM89.3 17.25L77.86 17.25C77.78 17.8 77.74 18.34 77.74 18.89 77.74 19.96 77.89 20.93 78.19 21.82 78.49 22.71 78.92 23.47 79.48 24.1 80.04 24.72 80.72 25.22 81.53 25.57 82.33 25.93 83.23 26.11 84.21 26.11 85.17 26.11 86.05 25.91 86.84 25.53 87.63 25.15 88.49 24.52 89.42 23.65L89.59 24.63C87.64 27.01 85.17 28.2 82.16 28.2 81.18 28.2 80.26 27.98 79.4 27.54 78.54 27.1 77.79 26.51 77.16 25.76 76.53 25 76.04 24.12 75.69 23.09 75.33 22.07 75.15 20.95 75.15 19.75 75.15 18.55 75.35 17.43 75.75 16.39 76.14 15.35 76.7 14.44 77.41 13.66 78.12 12.88 78.95 12.27 79.91 11.84 80.87 11.4 81.92 11.18 83.07 11.18 83.94 11.18 84.75 11.32 85.49 11.61 86.22 11.9 86.87 12.31 87.43 12.84 87.99 13.37 88.43 14.02 88.74 14.77 89.06 15.52 89.24 16.35 89.3 17.25L89.3 17.25ZM78.06 16.39L84.3 16.39C85.17 16.39 85.82 16.33 86.24 16.2 86.67 16.08 86.77 15.65 86.55 14.91 86.33 14.2 85.96 13.56 85.42 12.99 84.89 12.41 84.09 12.12 83.03 12.12 81.71 12.12 80.63 12.51 79.77 13.27 78.9 14.04 78.34 15.08 78.06 16.39L78.06 16.39ZM92.37 27.7L92.37 27.05 94.42 26.68C94.97 26.54 95.32 26.34 95.47 26.06 95.62 25.79 95.69 25.3 95.69 24.59L95.69 16.72C95.69 16.17 95.58 15.77 95.35 15.53 95.11 15.28 94.6 15.08 93.81 14.91L92.7 14.67 92.78 14.05C93.85 13.67 94.74 13.22 95.45 12.72 96.16 12.21 96.79 11.39 97.33 10.24L98.07 10.24C98.13 10.98 98.17 11.78 98.2 12.64 98.22 13.5 98.24 14.42 98.24 15.4 98.78 14.39 99.53 13.45 100.49 12.58 101.45 11.65 102.28 11.18 102.99 11.18 103.68 11.18 104.2 11.37 104.57 11.76 104.94 12.14 105.12 12.6 105.12 13.15 105.12 13.67 104.97 14.06 104.67 14.34 104.37 14.61 104 14.75 103.57 14.75 103.13 14.75 102.66 14.64 102.15 14.42 101.65 14.2 101.22 14.09 100.86 14.09 100.56 14.09 100.25 14.24 99.94 14.52 99.62 14.81 99.34 15.16 99.1 15.57 98.85 15.98 98.65 16.39 98.48 16.82 98.32 17.24 98.24 17.59 98.24 17.86L98.24 24.67C98.24 25.38 98.35 25.85 98.58 26.08 98.82 26.32 99.32 26.49 100.08 26.6L103.24 27.05 103.24 27.7C102.5 27.65 101.68 27.61 100.78 27.58 99.88 27.55 98.91 27.54 97.87 27.54L97.33 27.54C96.38 27.54 95.49 27.55 94.67 27.58 93.85 27.61 93.08 27.65 92.37 27.7L92.37 27.7ZM111.73 7.78L112.22 7.78C112.22 8.52 112.22 9.25 112.24 9.97 112.25 10.7 112.26 11.43 112.26 12.17L117.83 12.04 117.83 13.52 112.26 13.68 112.26 22.05C112.26 23.69 112.37 24.92 112.61 25.76 112.84 26.59 113.49 26.98 114.55 26.93 115.37 26.87 116.45 26.49 117.79 25.78L118.16 26.35C117.59 27.01 116.93 27.48 116.17 27.77 115.42 28.05 114.36 28.2 113 28.2 112.31 28.2 111.75 28.12 111.32 27.97 110.88 27.82 110.54 27.55 110.29 27.15 110.04 26.75 109.88 26.23 109.8 25.57 109.72 24.92 109.68 24.07 109.68 23.03L109.68 13.76C109.29 13.76 108.92 13.77 108.57 13.78 108.21 13.8 107.84 13.81 107.46 13.81 107.08 13.81 106.89 13.7 106.89 13.5 106.89 13.29 107.06 13.11 107.42 12.94 108.62 12.42 109.47 11.86 109.96 11.26 110.24 10.93 110.52 10.48 110.82 9.91 111.12 9.34 111.42 8.63 111.73 7.78L111.73 7.78ZM137.92 27.99C136.8 27.99 135.82 27.79 134.97 27.4 134.12 27 133.42 26.46 132.86 25.78 132.3 25.09 131.88 24.29 131.61 23.36 131.34 22.43 131.2 21.43 131.2 20.36 131.2 18.92 131.45 17.64 131.94 16.53 132.43 15.42 133.07 14.5 133.87 13.76 134.66 13.03 135.56 12.47 136.57 12.08 137.58 11.7 138.61 11.51 139.65 11.51 140.14 11.51 140.62 11.56 141.08 11.67 141.55 11.78 141.96 11.91 142.31 12.04 142.72 12.18 143.1 12.34 143.46 12.53L145.71 11.39 146.08 11.51C146.08 13.64 146.09 15.77 146.1 17.91 146.12 20.04 146.12 22.17 146.12 24.3 146.12 25.39 146.59 25.91 147.52 25.86 147.74 25.86 147.92 25.82 148.07 25.76 148.22 25.69 148.37 25.61 148.5 25.53 148.64 25.42 148.76 25.31 148.87 25.2L149.28 25.41C149.09 25.9 148.84 26.34 148.54 26.72 148.3 27.05 147.98 27.34 147.6 27.6 147.22 27.86 146.75 27.99 146.21 27.99 145.33 27.99 144.7 27.7 144.32 27.13 143.94 26.56 143.75 25.75 143.75 24.71L143.75 23.52C143.55 24.1 143.3 24.65 142.99 25.18 142.67 25.72 142.28 26.19 141.82 26.62 141.35 27.04 140.8 27.38 140.16 27.62 139.52 27.87 138.77 27.99 137.92 27.99L137.92 27.99ZM143.79 18.97C143.79 17 143.44 15.47 142.74 14.36 142.04 13.25 140.82 12.7 139.07 12.7 138.47 12.7 137.84 12.82 137.19 13.07 136.53 13.31 135.93 13.7 135.38 14.24 134.84 14.77 134.38 15.46 134.03 16.31 133.67 17.15 133.5 18.16 133.5 19.34 133.5 20.27 133.62 21.15 133.87 21.98 134.11 22.82 134.46 23.56 134.91 24.2 135.36 24.84 135.92 25.35 136.59 25.72 137.26 26.08 138.02 26.27 138.87 26.27 139.55 26.27 140.19 26.1 140.79 25.76 141.4 25.41 141.91 24.94 142.35 24.32 142.79 23.71 143.14 22.98 143.4 22.15 143.66 21.31 143.79 20.41 143.79 19.42L143.79 18.97ZM171.13 27.66C168.29 27.5 165.45 27.5 162.61 27.66L162.61 27.01 164.86 26.68C165.46 26.6 165.76 26.06 165.76 25.08L165.76 18.15C165.76 16.62 165.5 15.39 164.98 14.46 164.46 13.53 163.45 13.07 161.95 13.07 160.2 13.07 158.49 13.9 156.82 15.57L156.82 25.53C156.82 25.97 157.15 26.27 157.81 26.43L160.23 27.01 160.23 27.66C159.85 27.64 159.39 27.61 158.88 27.58 158.36 27.55 157.78 27.54 157.15 27.54L155.8 27.54C153.86 27.54 152.38 27.58 151.37 27.66L151.37 27.01 153.54 26.6C154.09 26.51 154.37 26.11 154.37 25.37L154.37 17.25C154.37 16.4 154.19 15.83 153.85 15.53 153.51 15.23 152.9 15.01 152.03 14.87L152.03 14.13C153.75 13.72 155.13 12.49 156.17 10.44L156.82 10.44 156.82 14.13C157.86 13.23 159.01 12.51 160.27 11.98 161.53 11.45 162.63 11.18 163.59 11.18 166.73 11.18 168.31 13.05 168.31 16.8L168.31 24.96C168.31 25.48 168.37 25.87 168.51 26.15 168.65 26.42 168.92 26.6 169.33 26.68L171.13 27.01 171.13 27.66ZM186.8 5.2C186.8 4.65 186.76 4.21 186.69 3.88 186.63 3.55 186.47 3.29 186.24 3.08 186.01 2.88 185.68 2.7 185.26 2.55 184.83 2.4 184.28 2.24 183.6 2.08L183.6 1.42C184.47 1.37 185.31 1.26 186.1 1.1 186.89 0.93 187.64 0.73 188.35 0.48L189.38 0.48 189.38 24.75C189.38 25.24 189.41 25.63 189.46 25.9 189.52 26.17 189.64 26.37 189.83 26.49 190.02 26.62 190.3 26.69 190.67 26.72 191.04 26.75 191.54 26.77 192.17 26.8L192.17 27.46C191.13 27.68 190.16 27.87 189.28 28.03 188.39 28.2 187.56 28.32 186.8 28.4L186.8 26.52C186.09 26.82 185.44 27.07 184.87 27.27 184.29 27.48 183.75 27.65 183.23 27.79 182.71 27.92 182.2 28.03 181.71 28.09 181.22 28.16 180.69 28.2 180.11 28.2 178.34 28.2 176.79 27.42 175.48 25.86 174.17 24.3 173.51 22.48 173.51 20.41 173.51 19.15 173.72 17.97 174.15 16.86 174.57 15.75 175.15 14.78 175.89 13.93 176.63 13.08 177.48 12.41 178.45 11.92 179.42 11.43 180.44 11.18 181.51 11.18 183.64 11.18 185.4 11.55 186.8 12.29L186.8 5.2ZM186.8 25.49L186.8 17.74C186.8 17.17 186.76 16.55 186.69 15.88 186.63 15.21 186.43 14.6 186.12 14.05 185.81 13.5 185.31 13.05 184.64 12.68 183.97 12.31 183.04 12.12 181.84 12.12 181.07 12.12 180.36 12.32 179.7 12.7 179.05 13.08 178.47 13.61 177.98 14.3 177.49 14.98 177.11 15.77 176.83 16.68 176.56 17.58 176.42 18.56 176.42 19.63 176.42 20.69 176.57 21.66 176.87 22.54 177.17 23.41 177.6 24.16 178.15 24.77 178.69 25.39 179.33 25.86 180.05 26.19 180.78 26.52 181.58 26.68 182.45 26.68 183.3 26.68 184.13 26.56 184.95 26.33 185.77 26.1 186.39 25.82 186.8 25.49L186.8 25.49ZM15.42 64.98C14.62 61.4 12.66 59.61 9.51 59.61 8.77 59.61 8.09 59.73 7.46 59.96 6.83 60.19 6.28 60.5 5.8 60.88 5.32 61.27 4.95 61.72 4.69 62.24 4.43 62.76 4.31 63.3 4.31 63.88 4.31 64.34 4.39 64.77 4.55 65.17 4.72 65.56 5.03 65.97 5.49 66.4 5.96 66.82 6.6 67.28 7.42 67.77 8.24 68.26 9.29 68.85 10.58 69.53 11.89 70.19 13 70.78 13.92 71.32 14.84 71.85 15.59 72.41 16.2 73 16.8 73.59 17.23 74.24 17.51 74.95 17.78 75.66 17.92 76.52 17.92 77.53 17.92 79.83 17.12 81.68 15.52 83.08 13.92 84.49 11.69 85.2 8.82 85.2 6.16 85.2 3.74 84.55 1.56 83.27L2.01 77.16 2.58 77.16C2.69 78.14 2.97 79.06 3.4 79.91 3.84 80.75 4.38 81.49 5.02 82.1 5.66 82.72 6.38 83.2 7.18 83.56 7.97 83.91 8.77 84.09 9.59 84.09 10.33 84.09 11.06 83.97 11.77 83.74 12.48 83.51 13.1 83.19 13.63 82.78 14.17 82.37 14.6 81.87 14.92 81.28 15.25 80.69 15.42 80.04 15.42 79.33 15.42 78.68 15.32 78.11 15.13 77.63 14.94 77.15 14.6 76.68 14.12 76.22 13.65 75.75 13 75.27 12.18 74.78 11.36 74.29 10.32 73.72 9.06 73.06 6.63 71.78 4.85 70.53 3.73 69.33 2.61 68.13 2.05 66.75 2.05 65.19 2.05 64.2 2.25 63.31 2.64 62.5 3.04 61.7 3.6 60.99 4.33 60.39 5.05 59.79 5.9 59.33 6.89 59 7.87 58.67 8.97 58.51 10.17 58.51 12.55 58.51 14.53 59.11 16.11 60.31L15.95 64.98 15.42 64.98ZM20.83 68.96L26.08 68.96 26.08 79.54C26.08 80.85 26.3 81.78 26.75 82.33 27.2 82.87 28.06 83.15 29.32 83.15 31.17 83.15 32.88 82.45 34.44 81.06L34.44 71.17C34.44 70.9 34.39 70.68 34.3 70.52 34.2 70.35 34.02 70.22 33.76 70.13 33.5 70.03 33.13 69.94 32.64 69.86 32.14 69.78 31.49 69.7 30.67 69.62L30.67 68.96 37.1 68.96 37.1 81.01C37.1 81.51 37.13 81.9 37.19 82.18 37.24 82.47 37.37 82.67 37.58 82.8 37.78 82.92 38.07 83 38.44 83.04 38.81 83.08 39.32 83.11 39.98 83.11 39.98 83.21 39.98 83.32 40 83.41 40.01 83.51 40.02 83.61 40.02 83.72L34.44 85.2 34.44 82.08C33.21 83.12 32.11 83.9 31.14 84.44 30.17 84.97 29.19 85.24 28.21 85.24 26.81 85.24 25.68 84.73 24.81 83.72 23.93 82.71 23.49 81.37 23.49 79.7L23.49 71.13C23.49 70.61 23.32 70.26 22.98 70.07 22.64 69.88 21.92 69.7 20.83 69.53L20.83 68.96ZM51.5 84.66C50.84 84.64 50.12 84.61 49.32 84.58 48.53 84.55 47.74 84.54 46.95 84.54 46.15 84.54 45.36 84.55 44.57 84.58 43.77 84.61 43.05 84.64 42.39 84.66L42.39 84.01 44.94 83.52C45.29 83.43 45.54 83.32 45.67 83.19 45.81 83.05 45.88 82.78 45.88 82.37L45.88 61.54C45.88 60.96 45.72 60.54 45.39 60.27 45.06 59.99 44.33 59.69 43.21 59.37L43.21 58.83C44.31 58.61 45.71 58.16 47.44 57.48L48.38 57.48 48.38 82.29C48.38 82.8 48.43 83.14 48.54 83.29 48.65 83.44 48.91 83.56 49.32 83.64L51.5 84.01 51.5 84.66ZM62.61 84.66C61.95 84.64 61.23 84.61 60.43 84.58 59.64 84.55 58.85 84.54 58.06 84.54 57.26 84.54 56.47 84.55 55.68 84.58 54.89 84.61 54.16 84.64 53.51 84.66L53.51 84.01 56.05 83.52C56.4 83.43 56.65 83.32 56.79 83.19 56.92 83.05 56.99 82.78 56.99 82.37L56.99 61.54C56.99 60.96 56.83 60.54 56.5 60.27 56.17 59.99 55.45 59.69 54.33 59.37L54.33 58.83C55.42 58.61 56.83 58.16 58.55 57.48L59.49 57.48 59.49 82.29C59.49 82.8 59.55 83.14 59.66 83.29 59.76 83.44 60.02 83.56 60.43 83.64L62.61 84.01 62.61 84.66ZM72.86 84.7C72.42 84.65 71.83 84.61 71.09 84.58 70.36 84.55 69.44 84.54 68.35 84.54 67.25 84.54 66.34 84.55 65.6 84.58 64.86 84.61 64.27 84.65 63.84 84.7L63.84 84.05 66.13 83.6C66.98 83.43 67.4 82.94 67.4 82.12L67.4 73.88C67.4 73.22 67.24 72.75 66.91 72.44 66.58 72.14 65.93 71.88 64.94 71.67L64.94 71.09C66.88 70.6 68.31 69.62 69.21 68.14L69.86 68.14 69.86 82.24C69.86 82.65 69.93 82.95 70.05 83.15 70.17 83.34 70.41 83.47 70.77 83.56L72.86 84.05 72.86 84.7ZM68.35 59.69C68.81 59.69 69.24 59.87 69.62 60.23 70 60.58 70.19 60.99 70.19 61.46 70.19 61.89 69.99 62.28 69.6 62.63 69.2 62.97 68.76 63.14 68.27 63.14 67.8 63.14 67.4 62.97 67.08 62.65 66.75 62.32 66.58 61.92 66.58 61.46 66.58 60.99 66.76 60.58 67.12 60.23 67.47 59.87 67.88 59.69 68.35 59.69L68.35 59.69ZM89.09 71.67L83.35 85.57 82.78 85.57 76.59 71.58C76.26 70.93 76 70.5 75.81 70.31 75.62 70.12 75.32 69.99 74.91 69.9L73.23 69.53 73.23 68.88C73.83 68.96 75.34 69 77.78 69 80.21 69 81.79 68.96 82.53 68.88L82.53 69.53 79.99 69.94C79.47 70.03 79.21 70.24 79.21 70.58 79.21 70.92 79.46 71.67 79.95 72.81L83.93 81.96 87.66 72.69C87.93 72.06 88.07 71.54 88.07 71.13 88.07 70.39 87.51 69.94 86.39 69.78L84.79 69.53 84.79 68.88C85.14 68.96 86.46 69 88.72 69 90.99 69 92.44 68.96 93.07 68.88L93.07 69.53 90.77 69.86C90.34 69.92 90.02 70.05 89.83 70.25 89.64 70.46 89.39 70.93 89.09 71.67L89.09 71.67ZM101.15 84.99C100.03 84.99 99.04 84.79 98.2 84.4 97.35 84 96.64 83.46 96.08 82.78 95.52 82.09 95.11 81.29 94.83 80.36 94.56 79.43 94.42 78.43 94.42 77.36 94.42 75.92 94.67 74.64 95.16 73.53 95.65 72.42 96.3 71.5 97.09 70.76 97.88 70.03 98.78 69.47 99.79 69.08 100.81 68.7 101.83 68.51 102.87 68.51 103.36 68.51 103.84 68.56 104.3 68.67 104.77 68.78 105.18 68.91 105.53 69.04 105.94 69.18 106.33 69.34 106.68 69.53L108.94 68.39 109.31 68.51C109.31 70.64 109.31 72.77 109.33 74.91 109.34 77.04 109.35 79.17 109.35 81.3 109.35 82.39 109.81 82.91 110.74 82.86 110.96 82.86 111.14 82.82 111.29 82.76 111.44 82.69 111.59 82.61 111.73 82.53 111.86 82.42 111.98 82.31 112.09 82.2L112.5 82.41C112.31 82.9 112.07 83.34 111.77 83.72 111.52 84.05 111.21 84.34 110.82 84.6 110.44 84.86 109.98 84.99 109.43 84.99 108.55 84.99 107.93 84.7 107.54 84.13 107.16 83.56 106.97 82.75 106.97 81.71L106.97 80.52C106.78 81.1 106.52 81.65 106.21 82.18 105.9 82.72 105.51 83.19 105.04 83.62 104.58 84.04 104.02 84.38 103.38 84.62 102.74 84.87 101.99 84.99 101.15 84.99L101.15 84.99ZM107.01 75.97C107.01 74 106.66 72.47 105.96 71.36 105.27 70.25 104.04 69.7 102.3 69.7 101.69 69.7 101.07 69.82 100.41 70.07 99.75 70.31 99.15 70.7 98.61 71.24 98.06 71.77 97.61 72.46 97.25 73.31 96.9 74.15 96.72 75.16 96.72 76.34 96.72 77.27 96.84 78.15 97.09 78.98 97.33 79.82 97.68 80.56 98.13 81.2 98.58 81.84 99.14 82.35 99.81 82.72 100.48 83.08 101.24 83.27 102.09 83.27 102.77 83.27 103.42 83.1 104.02 82.76 104.62 82.41 105.14 81.94 105.58 81.32 106.01 80.71 106.36 79.98 106.62 79.15 106.88 78.31 107.01 77.41 107.01 76.42L107.01 75.97ZM134.36 84.66C131.51 84.5 128.67 84.5 125.83 84.66L125.83 84.01 128.08 83.68C128.69 83.6 128.99 83.06 128.99 82.08L128.99 75.15C128.99 73.62 128.73 72.39 128.21 71.46 127.69 70.53 126.68 70.07 125.17 70.07 123.42 70.07 121.72 70.9 120.05 72.57L120.05 82.53C120.05 82.97 120.38 83.27 121.03 83.43L123.45 84.01 123.45 84.66C123.07 84.64 122.62 84.61 122.1 84.58 121.58 84.55 121 84.54 120.38 84.54L119.02 84.54C117.08 84.54 115.61 84.58 114.6 84.66L114.6 84.01 116.77 83.6C117.31 83.51 117.59 83.11 117.59 82.37L117.59 74.25C117.59 73.4 117.42 72.83 117.08 72.53 116.73 72.23 116.13 72.01 115.25 71.87L115.25 71.13C116.97 70.72 118.35 69.49 119.39 67.44L120.05 67.44 120.05 71.13C121.09 70.23 122.23 69.51 123.49 68.98 124.75 68.45 125.86 68.18 126.81 68.18 129.96 68.18 131.53 70.05 131.53 73.8L131.53 81.96C131.53 82.48 131.6 82.87 131.73 83.15 131.87 83.42 132.14 83.6 132.55 83.68L134.36 84.01 134.36 84.66ZM28.25 116.45L26.04 116.82C25.19 116.98 24.63 117.43 24.35 118.17L14.92 142.48 14.06 142.48 4.06 118.87C3.76 118.16 3.49 117.68 3.26 117.43 3.03 117.19 2.71 117.02 2.3 116.94L0 116.45 0 115.79C0.93 115.87 2.82 115.92 5.66 115.92 8.47 115.92 10.56 115.87 11.93 115.79L11.93 116.45 9.31 116.61C8.79 116.69 8.37 116.77 8.06 116.84 7.74 116.91 7.53 117.04 7.42 117.25 7.31 117.45 7.3 117.76 7.4 118.17 7.5 118.58 7.69 119.17 8 119.93L15.46 137.89 22.02 119.69C22.21 119.11 22.34 118.65 22.41 118.29 22.47 117.94 22.44 117.66 22.3 117.45 22.17 117.25 21.89 117.09 21.48 116.98 21.07 116.87 20.5 116.76 19.76 116.65L18.12 116.45 18.12 115.79C18.86 115.87 20.58 115.92 23.29 115.92 25.97 115.92 27.62 115.87 28.25 115.79L28.25 116.45ZM37.23 141.7C36.79 141.65 36.2 141.61 35.47 141.58 34.73 141.55 33.81 141.54 32.72 141.54 31.62 141.54 30.71 141.55 29.97 141.58 29.23 141.61 28.65 141.65 28.21 141.7L28.21 141.05 30.5 140.6C31.35 140.43 31.78 139.94 31.78 139.12L31.78 130.88C31.78 130.22 31.61 129.75 31.28 129.45 30.95 129.14 30.3 128.88 29.32 128.67L29.32 128.09C31.26 127.6 32.68 126.62 33.58 125.14L34.24 125.14 34.24 139.24C34.24 139.65 34.3 139.95 34.42 140.15 34.54 140.34 34.78 140.47 35.14 140.56L37.23 141.05 37.23 141.7ZM32.72 116.69C33.18 116.69 33.61 116.87 33.99 117.23 34.37 117.58 34.56 117.99 34.56 118.46 34.56 118.89 34.36 119.28 33.97 119.63 33.57 119.97 33.13 120.14 32.64 120.14 32.17 120.14 31.78 119.97 31.45 119.65 31.12 119.32 30.96 118.92 30.96 118.46 30.96 117.99 31.13 117.58 31.49 117.23 31.84 116.87 32.25 116.69 32.72 116.69L32.72 116.69ZM53.71 139.57C53 140.47 52.1 141.14 51 141.56 49.91 141.98 48.84 142.2 47.81 142.2 46.52 142.2 45.37 141.97 44.34 141.52 43.32 141.07 42.44 140.46 41.72 139.7 40.99 138.93 40.44 138.04 40.06 137.03 39.67 136.02 39.48 134.97 39.48 133.87 39.48 132.59 39.67 131.41 40.06 130.35 40.44 129.28 41.01 128.37 41.76 127.6 42.51 126.83 43.44 126.24 44.55 125.82 45.65 125.39 46.93 125.18 48.38 125.18 49.88 125.18 51.11 125.41 52.05 125.86 52.99 126.31 53.46 126.89 53.46 127.6 53.46 127.98 53.34 128.32 53.1 128.6 52.85 128.89 52.58 129.05 52.28 129.08 51.89 129.1 51.55 128.96 51.25 128.65 50.95 128.33 50.61 127.98 50.25 127.6 49.88 127.22 49.44 126.87 48.93 126.55 48.43 126.24 47.78 126.08 46.99 126.08 46.14 126.08 45.41 126.3 44.81 126.74 44.21 127.18 43.71 127.74 43.32 128.42 42.92 129.1 42.63 129.88 42.46 130.74 42.28 131.6 42.19 132.48 42.19 133.38 42.19 134.34 42.35 135.26 42.66 136.15 42.97 137.04 43.42 137.82 43.99 138.49 44.57 139.16 45.26 139.68 46.06 140.06 46.87 140.45 47.76 140.64 48.75 140.64 49.84 140.61 50.7 140.42 51.33 140.06 51.96 139.71 52.58 139.2 53.18 138.55L53.71 139.57ZM61.42 121.78L61.91 121.78C61.91 122.52 61.92 123.25 61.93 123.97 61.94 124.7 61.95 125.43 61.95 126.17L67.53 126.04 67.53 127.52 61.95 127.68 61.95 136.05C61.95 137.69 62.07 138.92 62.3 139.76 62.53 140.59 63.18 140.98 64.25 140.93 65.07 140.87 66.15 140.49 67.49 139.78L67.86 140.35C67.28 141.01 66.62 141.48 65.87 141.77 65.11 142.05 64.06 142.2 62.69 142.2 62.01 142.2 61.45 142.12 61.01 141.97 60.57 141.82 60.23 141.55 59.98 141.15 59.74 140.75 59.57 140.23 59.49 139.57 59.41 138.92 59.37 138.07 59.37 137.03L59.37 127.76C58.99 127.76 58.62 127.77 58.26 127.78 57.91 127.8 57.54 127.81 57.15 127.81 56.77 127.81 56.58 127.7 56.58 127.5 56.58 127.29 56.76 127.11 57.11 126.94 58.32 126.42 59.16 125.86 59.66 125.26 59.93 124.93 60.22 124.48 60.52 123.91 60.82 123.34 61.12 122.63 61.42 121.78L61.42 121.78ZM79.21 142.2C78.01 142.2 76.89 141.98 75.85 141.56 74.81 141.14 73.91 140.55 73.14 139.8 72.38 139.05 71.77 138.15 71.32 137.11 70.87 136.07 70.64 134.94 70.64 133.71 70.64 132.45 70.87 131.3 71.32 130.26 71.77 129.23 72.39 128.33 73.19 127.58 73.98 126.83 74.91 126.24 75.99 125.82 77.07 125.39 78.26 125.18 79.54 125.18 80.85 125.18 82.04 125.41 83.11 125.86 84.17 126.31 85.1 126.92 85.87 127.7 86.65 128.48 87.25 129.4 87.68 130.45 88.1 131.5 88.31 132.62 88.31 133.79 88.31 134.97 88.09 136.07 87.64 137.09 87.19 138.12 86.56 139 85.75 139.76 84.95 140.51 83.98 141.1 82.86 141.54 81.74 141.98 80.52 142.2 79.21 142.2L79.21 142.2ZM73.6 134.04C73.6 136.33 74.13 138.14 75.19 139.45 76.26 140.76 77.65 141.42 79.38 141.42 80.22 141.42 81.02 141.23 81.75 140.86 82.49 140.49 83.13 139.98 83.66 139.31 84.19 138.64 84.61 137.83 84.91 136.89 85.21 135.94 85.36 134.9 85.36 133.75 85.36 132.6 85.23 131.55 84.95 130.59 84.68 129.64 84.28 128.82 83.76 128.13 83.24 127.45 82.62 126.92 81.88 126.53 81.14 126.15 80.32 125.96 79.42 125.96 77.61 125.96 76.19 126.64 75.15 128.01 74.11 129.38 73.6 131.39 73.6 134.04L73.6 134.04ZM90.98 141.7L90.98 141.05 93.03 140.68C93.58 140.54 93.92 140.34 94.07 140.06 94.22 139.79 94.3 139.3 94.3 138.59L94.3 130.72C94.3 130.17 94.18 129.77 93.95 129.53 93.72 129.28 93.21 129.08 92.41 128.91L91.31 128.67 91.39 128.05C92.46 127.67 93.34 127.22 94.05 126.72 94.76 126.21 95.39 125.39 95.94 124.24L96.68 124.24C96.73 124.98 96.77 125.78 96.8 126.64 96.83 127.5 96.84 128.42 96.84 129.4 97.39 128.39 98.14 127.45 99.1 126.58 100.05 125.65 100.89 125.18 101.6 125.18 102.28 125.18 102.81 125.37 103.18 125.76 103.55 126.14 103.73 126.6 103.73 127.15 103.73 127.67 103.58 128.06 103.28 128.34 102.98 128.61 102.61 128.75 102.17 128.75 101.73 128.75 101.26 128.64 100.76 128.42 100.25 128.2 99.82 128.09 99.47 128.09 99.17 128.09 98.86 128.24 98.54 128.52 98.23 128.81 97.95 129.16 97.7 129.57 97.46 129.98 97.25 130.39 97.09 130.82 96.92 131.24 96.84 131.59 96.84 131.86L96.84 138.67C96.84 139.38 96.96 139.85 97.19 140.08 97.42 140.32 97.92 140.49 98.69 140.6L101.84 141.05 101.84 141.7C101.11 141.65 100.29 141.61 99.38 141.58 98.48 141.55 97.51 141.54 96.47 141.54L95.94 141.54C94.98 141.54 94.1 141.55 93.28 141.58 92.45 141.61 91.69 141.65 90.98 141.7L90.98 141.7ZM113.16 141.7C112.72 141.65 112.14 141.61 111.4 141.58 110.66 141.55 109.74 141.54 108.65 141.54 107.56 141.54 106.64 141.55 105.9 141.58 105.16 141.61 104.58 141.65 104.14 141.7L104.14 141.05 106.44 140.6C107.28 140.43 107.71 139.94 107.71 139.12L107.71 130.88C107.71 130.22 107.54 129.75 107.22 129.45 106.89 129.14 106.23 128.88 105.25 128.67L105.25 128.09C107.19 127.6 108.61 126.62 109.51 125.14L110.17 125.14 110.17 139.24C110.17 139.65 110.23 139.95 110.35 140.15 110.47 140.34 110.71 140.47 111.07 140.56L113.16 141.05 113.16 141.7ZM108.65 116.69C109.11 116.69 109.54 116.87 109.92 117.23 110.3 117.58 110.5 117.99 110.5 118.46 110.5 118.89 110.3 119.28 109.9 119.63 109.5 119.97 109.06 120.14 108.57 120.14 108.1 120.14 107.71 119.97 107.38 119.65 107.05 119.32 106.89 118.92 106.89 118.46 106.89 117.99 107.06 117.58 107.42 117.23 107.78 116.87 108.19 116.69 108.65 116.69L108.65 116.69ZM122.14 141.99C121.02 141.99 120.03 141.79 119.19 141.4 118.34 141 117.64 140.46 117.08 139.78 116.52 139.09 116.1 138.29 115.83 137.36 115.55 136.43 115.42 135.43 115.42 134.37 115.42 132.92 115.66 131.64 116.15 130.53 116.65 129.42 117.29 128.5 118.08 127.76 118.87 127.03 119.77 126.47 120.79 126.08 121.8 125.7 122.82 125.51 123.86 125.51 124.35 125.51 124.83 125.56 125.3 125.67 125.76 125.78 126.17 125.91 126.53 126.04 126.94 126.18 127.32 126.34 127.67 126.53L129.93 125.39 130.3 125.51C130.3 127.64 130.3 129.77 130.32 131.91 130.33 134.04 130.34 136.17 130.34 138.3 130.34 139.39 130.8 139.91 131.73 139.86 131.95 139.86 132.14 139.82 132.29 139.76 132.44 139.69 132.58 139.61 132.72 139.53 132.85 139.42 132.98 139.31 133.09 139.2L133.5 139.41C133.3 139.9 133.06 140.34 132.76 140.72 132.51 141.05 132.2 141.34 131.82 141.6 131.43 141.86 130.97 141.99 130.42 141.99 129.55 141.99 128.92 141.7 128.54 141.13 128.15 140.56 127.96 139.75 127.96 138.71L127.96 137.52C127.77 138.1 127.52 138.65 127.2 139.18 126.89 139.72 126.5 140.19 126.03 140.62 125.57 141.04 125.02 141.38 124.37 141.62 123.73 141.87 122.99 141.99 122.14 141.99L122.14 141.99ZM128 132.97C128 131 127.65 129.47 126.96 128.36 126.26 127.25 125.04 126.7 123.29 126.7 122.69 126.7 122.06 126.82 121.4 127.07 120.74 127.31 120.14 127.7 119.6 128.24 119.05 128.77 118.6 129.46 118.24 130.31 117.89 131.15 117.71 132.16 117.71 133.34 117.71 134.27 117.83 135.15 118.08 135.98 118.33 136.82 118.67 137.56 119.13 138.2 119.58 138.84 120.14 139.35 120.81 139.72 121.48 140.08 122.23 140.27 123.08 140.27 123.77 140.27 124.41 140.1 125.01 139.76 125.61 139.41 126.13 138.94 126.57 138.32 127 137.71 127.35 136.98 127.61 136.15 127.87 135.31 128 134.41 128 133.42L128 132.97ZM160.68 142.2C158.6 142.2 156.7 141.87 154.98 141.21 153.26 140.56 151.78 139.64 150.53 138.47 149.29 137.29 148.32 135.9 147.64 134.3 146.96 132.7 146.62 130.96 146.62 129.08 146.62 127.19 146.96 125.43 147.66 123.79 148.36 122.15 149.34 120.71 150.61 119.48 151.88 118.25 153.42 117.28 155.23 116.57 157.03 115.86 159.04 115.51 161.25 115.51 163.11 115.51 164.86 115.84 166.5 116.51 168.14 117.18 169.58 118.11 170.81 119.3 172.04 120.49 173.01 121.91 173.72 123.56 174.43 125.22 174.78 127.01 174.78 128.95 174.78 130.89 174.44 132.68 173.76 134.3 173.07 135.93 172.11 137.32 170.87 138.49 169.62 139.65 168.13 140.56 166.4 141.21 164.66 141.87 162.76 142.2 160.68 142.2L160.68 142.2ZM150.31 129.28C150.31 130.87 150.57 132.39 151.09 133.85 151.6 135.31 152.31 136.61 153.22 137.75 154.12 138.88 155.19 139.78 156.44 140.45 157.68 141.12 159.04 141.46 160.51 141.46 164.01 141.46 166.66 140.4 168.47 138.28 170.27 136.16 171.18 133.14 171.18 129.2 171.18 127.29 170.92 125.54 170.42 123.95 169.91 122.37 169.2 121.01 168.28 119.87 167.37 118.74 166.27 117.86 164.98 117.23 163.7 116.6 162.26 116.28 160.68 116.28 159.04 116.28 157.57 116.62 156.27 117.29 154.97 117.96 153.89 118.88 153.01 120.06 152.14 121.23 151.47 122.61 151 124.2 150.54 125.78 150.31 127.48 150.31 129.28L150.31 129.28ZM182.82 127.72C184.13 126.77 185.42 126.08 186.69 125.67 187.96 125.26 189.16 125.1 190.28 125.18 192.17 125.32 193.68 126.12 194.83 127.58 195.98 129.04 196.55 130.95 196.55 133.3 196.55 134.53 196.34 135.68 195.9 136.76 195.46 137.84 194.85 138.79 194.05 139.59 193.26 140.4 192.32 141.03 191.22 141.5 190.13 141.96 188.94 142.2 187.66 142.2 186.15 142.2 184.54 141.8 182.82 141.01L182.82 147.24C182.82 147.59 182.94 147.87 183.17 148.08 183.4 148.28 183.86 148.44 184.54 148.55L187 148.96 187 149.62C186.65 149.56 186.24 149.53 185.79 149.51 185.34 149.5 184.84 149.48 184.3 149.45L182.53 149.45C181.58 149.45 180.69 149.47 179.89 149.49 179.08 149.52 178.32 149.56 177.61 149.62L177.61 148.96 179.33 148.63C179.74 148.55 180.01 148.42 180.13 148.24 180.26 148.07 180.32 147.72 180.32 147.2L180.32 129.12C180.32 128.11 180.14 127.59 179.79 127.56L177.78 127.23 177.9 126.66C179.27 126.08 180.22 125.6 180.77 125.22 181.34 124.87 181.82 124.36 182.2 123.71L182.82 123.71 182.82 127.72ZM182.82 128.95L182.82 137.93C182.82 138.92 183.27 139.73 184.17 140.37 185.07 141.01 186.24 141.34 187.66 141.34 188.56 141.34 189.38 141.16 190.12 140.8 190.86 140.45 191.49 139.95 192.02 139.33 192.56 138.7 192.97 137.95 193.27 137.09 193.57 136.23 193.73 135.29 193.73 134.28 193.73 133.11 193.57 132.06 193.25 131.13 192.94 130.2 192.5 129.41 191.92 128.77 191.35 128.13 190.66 127.66 189.85 127.37 189.04 127.09 188.15 127.01 187.17 127.15 185.8 127.37 184.35 127.97 182.82 128.95L182.82 128.95ZM213.77 131.25L202.34 131.25C202.25 131.8 202.21 132.34 202.21 132.89 202.21 133.96 202.36 134.93 202.66 135.82 202.96 136.71 203.39 137.47 203.95 138.1 204.51 138.72 205.2 139.22 206 139.57 206.81 139.93 207.71 140.1 208.69 140.1 209.65 140.1 210.52 139.91 211.31 139.53 212.11 139.15 212.97 138.52 213.9 137.65L214.06 138.63C212.12 141.01 209.65 142.2 206.64 142.2 205.66 142.2 204.73 141.98 203.87 141.54 203.01 141.1 202.27 140.51 201.64 139.76 201.01 139 200.52 138.12 200.16 137.09 199.81 136.07 199.63 134.95 199.63 133.75 199.63 132.55 199.83 131.43 200.22 130.39 200.62 129.35 201.17 128.44 201.88 127.66 202.59 126.88 203.43 126.27 204.39 125.84 205.34 125.4 206.39 125.18 207.54 125.18 208.42 125.18 209.22 125.32 209.96 125.61 210.7 125.9 211.35 126.31 211.91 126.84 212.47 127.37 212.91 128.02 213.22 128.77 213.53 129.52 213.72 130.35 213.77 131.25L213.77 131.25ZM202.54 130.39L208.77 130.39C209.65 130.39 210.3 130.33 210.72 130.2 211.14 130.08 211.25 129.65 211.03 128.91 210.81 128.2 210.43 127.56 209.9 126.99 209.37 126.41 208.57 126.12 207.5 126.12 206.19 126.12 205.1 126.51 204.24 127.27 203.38 128.04 202.81 129.08 202.54 130.39L202.54 130.39ZM216.85 141.7L216.85 141.05 218.9 140.68C219.45 140.54 219.79 140.34 219.94 140.06 220.09 139.79 220.17 139.3 220.17 138.59L220.17 130.72C220.17 130.17 220.05 129.77 219.82 129.53 219.59 129.28 219.08 129.08 218.28 128.91L217.18 128.67 217.26 128.05C218.33 127.67 219.21 127.22 219.92 126.72 220.63 126.21 221.26 125.39 221.81 124.24L222.55 124.24C222.6 124.98 222.64 125.78 222.67 126.64 222.7 127.5 222.71 128.42 222.71 129.4 223.26 128.39 224.01 127.45 224.97 126.58 225.92 125.65 226.76 125.18 227.47 125.18 228.15 125.18 228.68 125.37 229.05 125.76 229.42 126.14 229.6 126.6 229.6 127.15 229.6 127.67 229.45 128.06 229.15 128.34 228.85 128.61 228.48 128.75 228.04 128.75 227.6 128.75 227.13 128.64 226.63 128.42 226.12 128.2 225.69 128.09 225.34 128.09 225.04 128.09 224.73 128.24 224.41 128.52 224.1 128.81 223.82 129.16 223.57 129.57 223.33 129.98 223.12 130.39 222.96 130.82 222.79 131.24 222.71 131.59 222.71 131.86L222.71 138.67C222.71 139.38 222.83 139.85 223.06 140.08 223.29 140.32 223.79 140.49 224.56 140.6L227.71 141.05 227.71 141.7C226.98 141.65 226.16 141.61 225.25 141.58 224.35 141.55 223.38 141.54 222.34 141.54L221.81 141.54C220.85 141.54 219.97 141.55 219.15 141.58 218.32 141.61 217.56 141.65 216.85 141.7L216.85 141.7ZM238.29 141.99C237.17 141.99 236.19 141.79 235.34 141.4 234.49 141 233.79 140.46 233.23 139.78 232.67 139.09 232.25 138.29 231.98 137.36 231.7 136.43 231.57 135.43 231.57 134.37 231.57 132.92 231.81 131.64 232.31 130.53 232.8 129.42 233.44 128.5 234.23 127.76 235.03 127.03 235.93 126.47 236.94 126.08 237.95 125.7 238.98 125.51 240.01 125.51 240.51 125.51 240.98 125.56 241.45 125.67 241.91 125.78 242.32 125.91 242.68 126.04 243.09 126.18 243.47 126.34 243.83 126.53L246.08 125.39 246.45 125.51C246.45 127.64 246.46 129.77 246.47 131.91 246.49 134.04 246.49 136.17 246.49 138.3 246.49 139.39 246.96 139.91 247.89 139.86 248.1 139.86 248.29 139.82 248.44 139.76 248.59 139.69 248.73 139.61 248.87 139.53 249.01 139.42 249.13 139.31 249.24 139.2L249.65 139.41C249.46 139.9 249.21 140.34 248.91 140.72 248.66 141.05 248.35 141.34 247.97 141.6 247.59 141.86 247.12 141.99 246.57 141.99 245.7 141.99 245.07 141.7 244.69 141.13 244.31 140.56 244.11 139.75 244.11 138.71L244.11 137.52C243.92 138.1 243.67 138.65 243.36 139.18 243.04 139.72 242.65 140.19 242.19 140.62 241.72 141.04 241.17 141.38 240.53 141.62 239.88 141.87 239.14 141.99 238.29 141.99L238.29 141.99ZM244.16 132.97C244.16 131 243.81 129.47 243.11 128.36 242.41 127.25 241.19 126.7 239.44 126.7 238.84 126.7 238.21 126.82 237.55 127.07 236.9 127.31 236.3 127.7 235.75 128.24 235.2 128.77 234.75 129.46 234.4 130.31 234.04 131.15 233.86 132.16 233.86 133.34 233.86 134.27 233.99 135.15 234.23 135.98 234.48 136.82 234.83 137.56 235.28 138.2 235.73 138.84 236.29 139.35 236.96 139.72 237.63 140.08 238.39 140.27 239.24 140.27 239.92 140.27 240.56 140.1 241.16 139.76 241.76 139.41 242.28 138.94 242.72 138.32 243.16 137.71 243.51 136.98 243.77 136.15 244.03 135.31 244.16 134.41 244.16 133.42L244.16 132.97Z" id="Gilbert-and-Sullivan" fill="#FAF8F8" sketch:type="MSShapeGroup"/>
  </g>
</svg>
